<?xml version="1.0" encoding="UTF-8" standalone="no"?>
<!DOCTYPE svg PUBLIC "-//W3C//DTD SVG 1.1//EN" "http://www.w3.org/Graphics/SVG/1.1/DTD/svg11.dtd">
<svg version="1.1" xmlns="http://www.w3.org/2000/svg" xmlns:xlink="http://www.w3.org/1999/xlink" preserveAspectRatio="xMidYMid meet" viewBox="113.14591010560278 328.5588235294118 438.3523232506129 303.9999999999999" width="434.35" height="300"><defs><path d="M343.36 330.06L349.41 330.67L355.39 331.52L361.28 332.61L367.1 333.92L372.82 335.46L378.46 337.21L384 339.18L389.43 341.35L394.76 343.73L399.98 346.31L405.08 349.08L410.06 352.05L414.91 355.19L419.63 358.52L424.22 362.02L428.66 365.69L432.96 369.52L437.11 373.51L441.11 377.66L444.94 381.96L448.61 386.41L452.11 390.99L455.44 395.72L458.58 400.57L461.54 405.55L464.32 410.65L466.89 415.87L469.27 421.2L471.45 426.63L473.42 432.17L475.17 437.8L476.71 443.53L478.02 449.34L479.1 455.24L479.96 461.22L480.55 467.06L548.5 467.06L537.54 479.56L526.58 492.06L480.55 492.06L479.96 497.9L479.1 503.88L478.02 509.77L476.71 515.59L475.17 521.31L473.42 526.95L471.45 532.49L469.27 537.92L466.89 543.25L464.32 548.47L461.54 553.57L458.58 558.55L455.44 563.4L452.11 568.12L448.61 572.71L444.94 577.15L441.11 581.45L437.11 585.6L432.96 589.6L428.66 593.43L424.22 597.1L419.63 600.6L414.91 603.93L410.06 607.07L405.08 610.03L399.98 612.81L394.76 615.38L389.43 617.76L384 619.94L378.46 621.91L372.82 623.66L367.1 625.2L361.28 626.51L355.39 627.59L349.41 628.45L343.36 629.06L337.25 629.43L331.07 629.56L324.89 629.43L318.77 629.06L312.73 628.45L306.75 627.59L300.85 626.51L295.04 625.2L289.31 623.66L283.68 621.91L278.14 619.94L272.71 617.76L267.38 615.38L262.16 612.81L257.06 610.03L252.08 607.07L247.23 603.93L242.5 600.6L237.92 597.1L233.47 593.43L229.17 589.6L225.02 585.6L221.03 581.45L217.2 577.15L213.53 572.71L210.03 568.12L206.7 563.4L203.56 558.55L200.59 553.57L197.82 548.47L195.24 543.25L192.86 537.92L190.69 532.49L188.72 526.95L186.97 521.31L185.43 515.59L184.12 509.77L183.03 503.88L182.18 497.9L181.59 492.06L114.15 492.06L125.11 479.56L136.07 467.06L181.59 467.06L182.18 461.22L183.03 455.24L184.12 449.34L185.43 443.53L186.97 437.8L188.72 432.17L190.69 426.63L192.86 421.2L195.24 415.87L197.82 410.65L200.59 405.55L203.56 400.57L206.7 395.72L210.03 390.99L213.53 386.41L217.2 381.96L221.03 377.66L225.02 373.51L229.17 369.52L233.47 365.69L237.92 362.02L242.5 358.52L247.23 355.19L252.08 352.05L257.06 349.08L262.16 346.31L267.38 343.73L272.71 341.35L278.14 339.18L283.68 337.21L289.31 335.46L295.04 333.92L300.85 332.61L306.75 331.52L312.73 330.67L318.77 330.06L324.89 329.68L331.07 329.56L337.25 329.68L343.36 330.06ZM320.82 354.97L315.78 355.49L310.8 356.2L305.89 357.1L301.05 358.19L296.27 359.47L291.58 360.94L286.96 362.58L282.43 364.39L277.99 366.37L273.64 368.52L269.39 370.83L265.24 373.3L261.2 375.92L257.27 378.69L253.44 381.61L249.74 384.66L246.16 387.86L242.7 391.19L239.37 394.65L236.17 398.23L233.12 401.93L230.2 405.76L227.43 409.69L224.81 413.73L222.34 417.88L220.03 422.13L217.88 426.48L215.9 430.92L214.09 435.45L212.45 440.07L210.98 444.76L209.7 449.53L208.61 454.38L207.71 459.29L207 464.27L206.48 469.31L206.17 474.41L206.07 479.56L206.17 484.71L206.48 489.8L207 494.84L207.71 499.82L208.61 504.74L209.7 509.58L210.98 514.36L212.45 519.05L214.09 523.67L215.9 528.19L217.88 532.64L220.03 536.98L222.34 541.23L224.81 545.38L227.43 549.43L230.2 553.36L233.12 557.18L236.17 560.89L239.37 564.47L242.7 567.93L246.16 571.26L249.74 574.45L253.44 577.51L257.27 580.43L261.2 583.2L265.24 585.82L269.39 588.29L273.64 590.6L277.99 592.75L282.43 594.73L286.96 596.54L291.58 598.18L296.27 599.64L301.05 600.92L305.89 602.02L310.8 602.92L315.78 603.63L320.82 604.14L325.92 604.45L331.07 604.56L336.22 604.45L341.31 604.14L346.35 603.63L351.33 602.92L356.25 602.02L361.09 600.92L365.87 599.64L370.56 598.18L375.18 596.54L379.71 594.73L384.15 592.75L388.49 590.6L392.74 588.29L396.89 585.82L400.94 583.2L404.87 580.43L408.69 577.51L412.4 574.45L415.98 571.26L419.44 567.93L422.77 564.47L425.96 560.89L429.02 557.18L431.94 553.36L434.71 549.43L437.33 545.38L439.8 541.23L442.11 536.98L444.26 532.64L446.24 528.19L448.05 523.67L449.69 519.05L451.15 514.36L452.43 509.58L453.53 504.74L454.43 499.82L455.14 494.84L455.65 489.8L455.96 484.71L456.07 479.56L455.96 474.41L455.65 469.31L455.14 464.27L454.43 459.29L453.53 454.38L452.43 449.53L451.15 444.76L449.69 440.07L448.05 435.45L446.24 430.92L444.26 426.48L442.11 422.13L439.8 417.88L437.33 413.73L434.71 409.69L431.94 405.76L429.02 401.93L425.96 398.23L422.77 394.65L419.44 391.19L415.98 387.86L412.4 384.66L408.69 381.61L404.87 378.69L400.94 375.92L396.89 373.3L392.74 370.83L388.49 368.52L384.15 366.37L379.71 364.39L375.18 362.58L370.56 360.94L365.87 359.47L361.09 358.19L356.25 357.1L351.33 356.2L346.35 355.49L341.31 354.97L336.22 354.66L331.07 354.56L325.92 354.66L320.82 354.97Z" id="b2v2qgbqL5"></path><path d="M322.33 483.21L322.33 578.02L238.92 530.61L238.92 435.81L322.33 483.21L322.33 483.21Z" id="a19FR3GqHb"></path><path d="M338.11 580L338.11 485.19L421.51 437.79L421.51 532.59L338.11 580Z" id="i20s56gqhx"></path><path d="M329.66 565.73L329.77 565.67L329.77 565.79L329.66 565.73ZM413.17 423.66L329.77 471.06L329.77 470.86L246.47 423.52L329.77 376.18L413.17 423.58L413.17 423.66Z" id="bCS7FwMQV"></path></defs><g><g><use xlink:href="#b2v2qgbqL5" opacity="1" fill="#ececec" fill-opacity="1"></use></g><g><use xlink:href="#a19FR3GqHb" opacity="1" fill="#939292" fill-opacity="1"></use></g><g><use xlink:href="#i20s56gqhx" opacity="1" fill="#ececec" fill-opacity="1"></use></g><g><use xlink:href="#bCS7FwMQV" opacity="1" fill="#ececec" fill-opacity="1"></use></g></g></svg>